<svg width="100" height="100" xmlns="http://www.w3.org/2000/svg">
  <defs>
    <pattern id="starPattern" x="0" y="0" width="50" height="50" patternUnits="userSpaceOnUse">
      <!-- Small stars -->
      <circle cx="10" cy="10" r="1" fill="#FFD700" opacity="0.3">
        <animate attributeName="opacity" values="0.3;0.8;0.3" dur="3s" repeatCount="indefinite"/>
      </circle>
      <circle cx="35" cy="25" r="0.8" fill="#FFD700" opacity="0.4">
        <animate attributeName="opacity" values="0.4;0.9;0.4" dur="2.5s" repeatCount="indefinite"/>
      </circle>
      <circle cx="20" cy="40" r="1.2" fill="#FFD700" opacity="0.2">
        <animate attributeName="opacity" values="0.2;0.7;0.2" dur="4s" repeatCount="indefinite"/>
      </circle>
      
      <!-- Medium stars -->
      <polygon points="45,5 46,8 49,8 47,10 48,13 45,11 42,13 43,10 41,8 44,8" fill="#FFD700" opacity="0.3">
        <animate attributeName="opacity" values="0.3;0.8;0.3" dur="3.5s" repeatCount="indefinite"/>
        <animateTransform attributeName="transform" type="rotate" values="0 45 9;360 45 9" dur="20s" repeatCount="indefinite"/>
      </polygon>
      
      <polygon points="15,30 16,33 19,33 17,35 18,38 15,36 12,38 13,35 11,33 14,33" fill="#FFD700" opacity="0.25">
        <animate attributeName="opacity" values="0.25;0.7;0.25" dur="4.2s" repeatCount="indefinite"/>
        <animateTransform attributeName="transform" type="rotate" values="360 15 34;0 15 34" dur="25s" repeatCount="indefinite"/>
      </polygon>
      
      <!-- Tiny sparkles -->
      <circle cx="5" cy="45" r="0.5" fill="#FFD700" opacity="0.5">
        <animate attributeName="opacity" values="0.5;1;0.5" dur="1.8s" repeatCount="indefinite"/>
      </circle>
      <circle cx="40" cy="15" r="0.6" fill="#FFD700" opacity="0.4">
        <animate attributeName="opacity" values="0.4;0.9;0.4" dur="2.2s" repeatCount="indefinite"/>
      </circle>
      <circle cx="30" cy="5" r="0.4" fill="#FFD700" opacity="0.6">
        <animate attributeName="opacity" values="0.6;1;0.6" dur="1.5s" repeatCount="indefinite"/>
      </circle>
      
      <!-- Crescent moon -->
      <path d="M25 15 Q 28 12 31 15 Q 28 18 25 15 Z" fill="#FFD700" opacity="0.2">
        <animate attributeName="opacity" values="0.2;0.6;0.2" dur="5s" repeatCount="indefinite"/>
      </path>
    </pattern>
  </defs>
  
  <rect width="100" height="100" fill="url(#starPattern)"/>
</svg>

